# vtk DataFile Version 5.1
vtk output
ASCII
DATASET UNSTRUCTURED_GRID
POINTS 500 double
0.074671492358 -0.01 -1.1102230246e-19 0.072675438901 -0.01 1.1102230246e-19 0.074671492358 -0.005 -1.1102230246e-19 
0.072675438901 -0.005 1.1102230246e-19 0.074671492358 0 -1.1102230246e-19 0.072675438901 0 1.1102230246e-19 
0.074671492358 0.005 -1.1102230246e-19 0.072675438901 0.005 1.1102230246e-19 0.074671492358 0.01 -1.1102230246e-19 
0.072675438901 0.01 1.1102230246e-19 0.074082685338 -0.01 0.0093588195923 0.072102371358 -0.01 0.0091086477582 
0.074082685338 -0.005 0.0093588195923 0.072102371358 -0.005 0.0091086477582 0.074082685338 0 0.0093588195923 
0.072102371358 0 0.0091086477582 0.074082685338 0.005 0.0093588195923 0.072102371358 0.005 0.0091086477582 
0.074082685338 0.01 0.0093588195923 0.072102371358 0.01 0.0091086477582 0.072325550114 -0.01 0.018570045009 
0.070392206347 -0.01 0.0180736467 0.072325550114 -0.005 0.018570045009 0.070392206347 -0.005 0.0180736467 
0.072325550114 0 0.018570045009 0.070392206347 0 0.0180736467 0.072325550114 0.005 0.018570045009 
0.070392206347 0.005 0.0180736467 0.072325550114 0.01 0.018570045009 0.070392206347 0.01 0.0180736467 
0.069427797761 -0.01 0.027488409723 0.067571914192 -0.01 0.026753613437 0.069427797761 -0.005 0.027488409723 
0.067571914192 -0.005 0.026753613437 0.069427797761 0 0.027488409723 0.067571914192 0 0.026753613437 
0.069427797761 0.005 0.027488409723 0.067571914192 0.005 0.026753613437 0.069427797761 0.01 0.027488409723 
0.067571914192 0.01 0.026753613437 0.065435127562 -0.01 0.035973265794 0.063685972584 -0.01 0.035011659708 
0.065435127562 -0.005 0.035973265794 0.063685972584 -0.005 0.035011659708 0.065435127562 0 0.035973265794 
0.063685972584 0 0.035011659708 0.065435127562 0.005 0.035973265794 0.063685972584 0.005 0.035011659708 
0.065435127562 0.01 0.035973265794 0.063685972584 0.01 0.035011659708 0.060410506313 -0.01 0.043890801975 
0.058795665145 -0.01 0.04271755119 0.060410506313 -0.005 0.043890801975 0.058795665145 -0.005 0.04271755119 
0.060410506313 0 0.043890801975 0.058795665145 0 0.04271755119 0.060410506313 0.005 0.043890801975 
0.058795665145 0.005 0.04271755119 0.060410506313 0.01 0.043890801975 0.058795665145 0.01 0.04271755119 
0.054433175292 -0.01 0.051116153989 0.052978114943 -0.01 0.049749761372 0.054433175292 -0.005 0.051116153989 
0.052978114943 -0.005 0.049749761372 0.054433175292 0 0.051116153989 0.052978114943 0 0.049749761372 
0.054433175292 0.005 0.051116153989 0.052978114943 0.005 0.049749761372 0.054433175292 0.01 0.051116153989 
0.052978114943 0.01 0.049749761372 0.047597400579 -0.01 0.05753537372 0.046325068221 -0.01 0.055997388098 
0.047597400579 -0.005 0.05753537372 0.046325068221 -0.005 0.055997388098 0.047597400579 0 0.05753537372 
0.046325068221 0 0.055997388098 0.047597400579 0.005 0.05753537372 0.046325068221 0.005 0.055997388098 
0.047597400579 0.01 0.05753537372 0.046325068221 0.01 0.055997388098 0.040010986427 -0.01 0.063047226237 
0.0389414475 -0.01 0.061361902562 0.040010986427 -0.005 0.063047226237 0.0389414475 -0.005 0.061361902562 
0.040010986427 0 0.063047226237 0.0389414475 0 0.061361902562 0.040010986427 0.005 0.063047226237 
0.0389414475 0.005 0.061361902562 0.040010986427 0.01 0.063047226237 0.0389414475 0.01 0.061361902562 
0.031793575116 -0.01 0.067564786334 0.03094369689 -0.01 0.065758703168 0.031793575116 -0.005 0.067564786334 
0.03094369689 -0.005 0.065758703168 0.031793575116 0 0.067564786334 0.03094369689 0 0.065758703168 
0.031793575116 0.005 0.067564786334 0.03094369689 0.005 0.065758703168 0.031793575116 0.01 0.067564786334 
0.03094369689 0.01 0.065758703168 0.023074760134 -0.01 0.071016809389 0.022457945694 -0.01 0.069118449742 
0.023074760134 -0.005 0.071016809389 0.022457945694 -0.005 0.069118449742 0.023074760134 0 0.071016809389 
0.022457945694 0 0.069118449742 0.023074760134 0.005 0.071016809389 0.022457945694 0.005 0.069118449742 
0.023074760134 0.01 0.071016809389 0.022457945694 0.01 0.069118449742 0.0139920424 -0.01 0.073348854936 
0.013618019279 -0.01 0.071388157074 0.0139920424 -0.005 0.073348854936 0.013618019279 -0.005 0.071388157074 
0.0139920424 0 0.073348854936 0.013618019279 0 0.071388157074 0.0139920424 0.005 0.073348854936 
0.013618019279 0.005 0.071388157074 0.0139920424 0.01 0.073348854936 0.013618019279 0.01 0.071388157074 
0.0046886617992 -0.01 0.074524145225 0.0045633285656 -0.01 0.072532030524 0.0046886617992 -0.005 0.074524145225 
0.0045633285656 -0.005 0.072532030524 0.0046886617992 0 0.074524145225 0.0045633285656 0 0.072532030524 
0.0046886617992 0.005 0.074524145225 0.0045633285656 0.005 0.072532030524 0.0046886617992 0.01 0.074524145225 
0.0045633285656 0.01 0.072532030524 -0.0046886617992 -0.01 0.074524145225 -0.0045633285656 -0.01 0.072532030524 
-0.0046886617992 -0.005 0.074524145225 -0.0045633285656 -0.005 0.072532030524 -0.0046886617992 0 0.074524145225 
-0.0045633285656 0 0.072532030524 -0.0046886617992 0.005 0.074524145225 -0.0045633285656 0.005 0.072532030524 
-0.0046886617992 0.01 0.074524145225 -0.0045633285656 0.01 0.072532030524 -0.0139920424 -0.01 0.073348854936 
-0.013618019279 -0.01 0.071388157074 -0.0139920424 -0.005 0.073348854936 -0.013618019279 -0.005 0.071388157074 
-0.0139920424 0 0.073348854936 -0.013618019279 0 0.071388157074 -0.0139920424 0.005 0.073348854936 
-0.013618019279 0.005 0.071388157074 -0.0139920424 0.01 0.073348854936 -0.013618019279 0.01 0.071388157074 
-0.023074760134 -0.01 0.071016809389 -0.022457945694 -0.01 0.069118449742 -0.023074760134 -0.005 0.071016809389 
-0.022457945694 -0.005 0.069118449742 -0.023074760134 0 0.071016809389 -0.022457945694 0 0.069118449742 
-0.023074760134 0.005 0.071016809389 -0.022457945694 0.005 0.069118449742 -0.023074760134 0.01 0.071016809389 
-0.022457945694 0.01 0.069118449742 -0.031793575116 -0.01 0.067564786334 -0.03094369689 -0.01 0.065758703168 
-0.031793575116 -0.005 0.067564786334 -0.03094369689 -0.005 0.065758703168 -0.031793575116 0 0.067564786334 
-0.03094369689 0 0.065758703168 -0.031793575116 0.005 0.067564786334 -0.03094369689 0.005 0.065758703168 
-0.031793575116 0.01 0.067564786334 -0.03094369689 0.01 0.065758703168 -0.040010986427 -0.01 0.063047226237 
-0.0389414475 -0.01 0.061361902562 -0.040010986427 -0.005 0.063047226237 -0.0389414475 -0.005 0.061361902562 
-0.040010986427 0 0.063047226237 -0.0389414475 0 0.061361902562 -0.040010986427 0.005 0.063047226237 
-0.0389414475 0.005 0.061361902562 -0.040010986427 0.01 0.063047226237 -0.0389414475 0.01 0.061361902562 
-0.047597400579 -0.01 0.05753537372 -0.046325068221 -0.01 0.055997388098 -0.047597400579 -0.005 0.05753537372 
-0.046325068221 -0.005 0.055997388098 -0.047597400579 0 0.05753537372 -0.046325068221 0 0.055997388098 
-0.047597400579 0.005 0.05753537372 -0.046325068221 0.005 0.055997388098 -0.047597400579 0.01 0.05753537372 
-0.046325068221 0.01 0.055997388098 -0.054433175292 -0.01 0.051116153989 -0.052978114943 -0.01 0.049749761372 
-0.054433175292 -0.005 0.051116153989 -0.052978114943 -0.005 0.049749761372 -0.054433175292 0 0.051116153989 
-0.052978114943 0 0.049749761372 -0.054433175292 0.005 0.051116153989 -0.052978114943 0.005 0.049749761372 
-0.054433175292 0.01 0.051116153989 -0.052978114943 0.01 0.049749761372 -0.060410506313 -0.01 0.043890801975 
-0.058795665145 -0.01 0.04271755119 -0.060410506313 -0.005 0.043890801975 -0.058795665145 -0.005 0.04271755119 
-0.060410506313 0 0.043890801975 -0.058795665145 0 0.04271755119 -0.060410506313 0.005 0.043890801975 
-0.058795665145 0.005 0.04271755119 -0.060410506313 0.01 0.043890801975 -0.058795665145 0.01 0.04271755119 
-0.065435127562 -0.01 0.035973265794 -0.063685972584 -0.01 0.035011659708 -0.065435127562 -0.005 0.035973265794 
-0.063685972584 -0.005 0.035011659708 -0.065435127562 0 0.035973265794 -0.063685972584 0 0.035011659708 
-0.065435127562 0.005 0.035973265794 -0.063685972584 0.005 0.035011659708 -0.065435127562 0.01 0.035973265794 
-0.063685972584 0.01 0.035011659708 -0.069427797761 -0.01 0.027488409723 -0.067571914192 -0.01 0.026753613437 
-0.069427797761 -0.005 0.027488409723 -0.067571914192 -0.005 0.026753613437 -0.069427797761 0 0.027488409723 
-0.067571914192 0 0.026753613437 -0.069427797761 0.005 0.027488409723 -0.067571914192 0.005 0.026753613437 
-0.069427797761 0.01 0.027488409723 -0.067571914192 0.01 0.026753613437 -0.072325550114 -0.01 0.018570045009 
-0.070392206347 -0.01 0.0180736467 -0.072325550114 -0.005 0.018570045009 -0.070392206347 -0.005 0.0180736467 
-0.072325550114 0 0.018570045009 -0.070392206347 0 0.0180736467 -0.072325550114 0.005 0.018570045009 
-0.070392206347 0.005 0.0180736467 -0.072325550114 0.01 0.018570045009 -0.070392206347 0.01 0.0180736467 
-0.074082685338 -0.01 0.0093588195923 -0.072102371358 -0.01 0.0091086477582 -0.074082685338 -0.005 0.0093588195923 
-0.072102371358 -0.005 0.0091086477582 -0.074082685338 0 0.0093588195923 -0.072102371358 0 0.0091086477582 
-0.074082685338 0.005 0.0093588195923 -0.072102371358 0.005 0.0091086477582 -0.074082685338 0.01 0.0093588195923 
-0.072102371358 0.01 0.0091086477582 -0.074671492358 -0.01 -2.3813154948e-17 -0.072675438901 -0.01 -2.3577232555e-17 
-0.074671492358 -0.005 -2.3813154948e-17 -0.072675438901 -0.005 -2.3577232555e-17 -0.074671492358 0 -2.3813154948e-17 
-0.072675438901 0 -2.3577232555e-17 -0.074671492358 0.005 -2.3813154948e-17 -0.072675438901 0.005 -2.3577232555e-17 
-0.074671492358 0.01 -2.3813154948e-17 -0.072675438901 0.01 -2.3577232555e-17 -0.074082685338 -0.01 -0.0093588195923 
-0.072102371358 -0.01 -0.0091086477582 -0.074082685338 -0.005 -0.0093588195923 -0.072102371358 -0.005 -0.0091086477582 
-0.074082685338 0 -0.0093588195923 -0.072102371358 0 -0.0091086477582 -0.074082685338 0.005 -0.0093588195923 
-0.072102371358 0.005 -0.0091086477582 -0.074082685338 0.01 -0.0093588195923 -0.072102371358 0.01 -0.0091086477582 
-0.072325550114 -0.01 -0.018570045009 -0.070392206347 -0.01 -0.0180736467 -0.072325550114 -0.005 -0.018570045009 
-0.070392206347 -0.005 -0.0180736467 -0.072325550114 0 -0.018570045009 -0.070392206347 0 -0.0180736467 
-0.072325550114 0.005 -0.018570045009 -0.070392206347 0.005 -0.0180736467 -0.072325550114 0.01 -0.018570045009 
-0.070392206347 0.01 -0.0180736467 -0.069427797761 -0.01 -0.027488409723 -0.067571914192 -0.01 -0.026753613437 
-0.069427797761 -0.005 -0.027488409723 -0.067571914192 -0.005 -0.026753613437 -0.069427797761 0 -0.027488409723 
-0.067571914192 0 -0.026753613437 -0.069427797761 0.005 -0.027488409723 -0.067571914192 0.005 -0.026753613437 
-0.069427797761 0.01 -0.027488409723 -0.067571914192 0.01 -0.026753613437 -0.065435127562 -0.01 -0.035973265794 
-0.063685972584 -0.01 -0.035011659708 -0.065435127562 -0.005 -0.035973265794 -0.063685972584 -0.005 -0.035011659708 
-0.065435127562 0 -0.035973265794 -0.063685972584 0 -0.035011659708 -0.065435127562 0.005 -0.035973265794 
-0.063685972584 0.005 -0.035011659708 -0.065435127562 0.01 -0.035973265794 -0.063685972584 0.01 -0.035011659708 
-0.060410506313 -0.01 -0.043890801975 -0.058795665145 -0.01 -0.04271755119 -0.060410506313 -0.005 -0.043890801975 
-0.058795665145 -0.005 -0.04271755119 -0.060410506313 0 -0.043890801975 -0.058795665145 0 -0.04271755119 
-0.060410506313 0.005 -0.043890801975 -0.058795665145 0.005 -0.04271755119 -0.060410506313 0.01 -0.043890801975 
-0.058795665145 0.01 -0.04271755119 -0.054433175292 -0.01 -0.051116153989 -0.052978114943 -0.01 -0.049749761372 
-0.054433175292 -0.005 -0.051116153989 -0.052978114943 -0.005 -0.049749761372 -0.054433175292 0 -0.051116153989 
-0.052978114943 0 -0.049749761372 -0.054433175292 0.005 -0.051116153989 -0.052978114943 0.005 -0.049749761372 
-0.054433175292 0.01 -0.051116153989 -0.052978114943 0.01 -0.049749761372 -0.047597400579 -0.01 -0.05753537372 
-0.046325068221 -0.01 -0.055997388098 -0.047597400579 -0.005 -0.05753537372 -0.046325068221 -0.005 -0.055997388098 
-0.047597400579 0 -0.05753537372 -0.046325068221 0 -0.055997388098 -0.047597400579 0.005 -0.05753537372 
-0.046325068221 0.005 -0.055997388098 -0.047597400579 0.01 -0.05753537372 -0.046325068221 0.01 -0.055997388098 
-0.040010986427 -0.01 -0.063047226237 -0.0389414475 -0.01 -0.061361902562 -0.040010986427 -0.005 -0.063047226237 
-0.0389414475 -0.005 -0.061361902562 -0.040010986427 0 -0.063047226237 -0.0389414475 0 -0.061361902562 
-0.040010986427 0.005 -0.063047226237 -0.0389414475 0.005 -0.061361902562 -0.040010986427 0.01 -0.063047226237 
-0.0389414475 0.01 -0.061361902562 -0.031793575116 -0.01 -0.067564786334 -0.03094369689 -0.01 -0.065758703168 
-0.031793575116 -0.005 -0.067564786334 -0.03094369689 -0.005 -0.065758703168 -0.031793575116 0 -0.067564786334 
-0.03094369689 0 -0.065758703168 -0.031793575116 0.005 -0.067564786334 -0.03094369689 0.005 -0.065758703168 
-0.031793575116 0.01 -0.067564786334 -0.03094369689 0.01 -0.065758703168 -0.023074760134 -0.01 -0.071016809389 
-0.022457945694 -0.01 -0.069118449742 -0.023074760134 -0.005 -0.071016809389 -0.022457945694 -0.005 -0.069118449742 
-0.023074760134 0 -0.071016809389 -0.022457945694 0 -0.069118449742 -0.023074760134 0.005 -0.071016809389 
-0.022457945694 0.005 -0.069118449742 -0.023074760134 0.01 -0.071016809389 -0.022457945694 0.01 -0.069118449742 
-0.0139920424 -0.01 -0.073348854936 -0.013618019279 -0.01 -0.071388157074 -0.0139920424 -0.005 -0.073348854936 
-0.013618019279 -0.005 -0.071388157074 -0.0139920424 0 -0.073348854936 -0.013618019279 0 -0.071388157074 
-0.0139920424 0.005 -0.073348854936 -0.013618019279 0.005 -0.071388157074 -0.0139920424 0.01 -0.073348854936 
-0.013618019279 0.01 -0.071388157074 -0.0046886617992 -0.01 -0.074524145225 -0.0045633285656 -0.01 -0.072532030524 
-0.0046886617992 -0.005 -0.074524145225 -0.0045633285656 -0.005 -0.072532030524 -0.0046886617992 0 -0.074524145225 
-0.0045633285656 0 -0.072532030524 -0.0046886617992 0.005 -0.074524145225 -0.0045633285656 0.005 -0.072532030524 
-0.0046886617992 0.01 -0.074524145225 -0.0045633285656 0.01 -0.072532030524 0.0046886617992 -0.01 -0.074524145225 
0.0045633285656 -0.01 -0.072532030524 0.0046886617992 -0.005 -0.074524145225 0.0045633285656 -0.005 -0.072532030524 
0.0046886617992 0 -0.074524145225 0.0045633285656 0 -0.072532030524 0.0046886617992 0.005 -0.074524145225 
0.0045633285656 0.005 -0.072532030524 0.0046886617992 0.01 -0.074524145225 0.0045633285656 0.01 -0.072532030524 
0.0139920424 -0.01 -0.073348854936 0.013618019279 -0.01 -0.071388157074 0.0139920424 -0.005 -0.073348854936 
0.013618019279 -0.005 -0.071388157074 0.0139920424 0 -0.073348854936 0.013618019279 0 -0.071388157074 
0.0139920424 0.005 -0.073348854936 0.013618019279 0.005 -0.071388157074 0.0139920424 0.01 -0.073348854936 
0.013618019279 0.01 -0.071388157074 0.023074760134 -0.01 -0.071016809389 0.022457945694 -0.01 -0.069118449742 
0.023074760134 -0.005 -0.071016809389 0.022457945694 -0.005 -0.069118449742 0.023074760134 0 -0.071016809389 
0.022457945694 0 -0.069118449742 0.023074760134 0.005 -0.071016809389 0.022457945694 0.005 -0.069118449742 
0.023074760134 0.01 -0.071016809389 0.022457945694 0.01 -0.069118449742 0.031793575116 -0.01 -0.067564786334 
0.03094369689 -0.01 -0.065758703168 0.031793575116 -0.005 -0.067564786334 0.03094369689 -0.005 -0.065758703168 
0.031793575116 0 -0.067564786334 0.03094369689 0 -0.065758703168 0.031793575116 0.005 -0.067564786334 
0.03094369689 0.005 -0.065758703168 0.031793575116 0.01 -0.067564786334 0.03094369689 0.01 -0.065758703168 
0.040010986427 -0.01 -0.063047226237 0.0389414475 -0.01 -0.061361902562 0.040010986427 -0.005 -0.063047226237 
0.0389414475 -0.005 -0.061361902562 0.040010986427 0 -0.063047226237 0.0389414475 0 -0.061361902562 
0.040010986427 0.005 -0.063047226237 0.0389414475 0.005 -0.061361902562 0.040010986427 0.01 -0.063047226237 
0.0389414475 0.01 -0.061361902562 0.047597400579 -0.01 -0.05753537372 0.046325068221 -0.01 -0.055997388098 
0.047597400579 -0.005 -0.05753537372 0.046325068221 -0.005 -0.055997388098 0.047597400579 0 -0.05753537372 
0.046325068221 0 -0.055997388098 0.047597400579 0.005 -0.05753537372 0.046325068221 0.005 -0.055997388098 
0.047597400579 0.01 -0.05753537372 0.046325068221 0.01 -0.055997388098 0.054433175292 -0.01 -0.051116153989 
0.052978114943 -0.01 -0.049749761372 0.054433175292 -0.005 -0.051116153989 0.052978114943 -0.005 -0.049749761372 
0.054433175292 0 -0.051116153989 0.052978114943 0 -0.049749761372 0.054433175292 0.005 -0.051116153989 
0.052978114943 0.005 -0.049749761372 0.054433175292 0.01 -0.051116153989 0.052978114943 0.01 -0.049749761372 
0.060410506313 -0.01 -0.043890801975 0.058795665145 -0.01 -0.04271755119 0.060410506313 -0.005 -0.043890801975 
0.058795665145 -0.005 -0.04271755119 0.060410506313 0 -0.043890801975 0.058795665145 0 -0.04271755119 
0.060410506313 0.005 -0.043890801975 0.058795665145 0.005 -0.04271755119 0.060410506313 0.01 -0.043890801975 
0.058795665145 0.01 -0.04271755119 0.065435127562 -0.01 -0.035973265794 0.063685972584 -0.01 -0.035011659708 
0.065435127562 -0.005 -0.035973265794 0.063685972584 -0.005 -0.035011659708 0.065435127562 0 -0.035973265794 
0.063685972584 0 -0.035011659708 0.065435127562 0.005 -0.035973265794 0.063685972584 0.005 -0.035011659708 
0.065435127562 0.01 -0.035973265794 0.063685972584 0.01 -0.035011659708 0.069427797761 -0.01 -0.027488409723 
0.067571914192 -0.01 -0.026753613437 0.069427797761 -0.005 -0.027488409723 0.067571914192 -0.005 -0.026753613437 
0.069427797761 0 -0.027488409723 0.067571914192 0 -0.026753613437 0.069427797761 0.005 -0.027488409723 
0.067571914192 0.005 -0.026753613437 0.069427797761 0.01 -0.027488409723 0.067571914192 0.01 -0.026753613437 
0.072325550114 -0.01 -0.018570045009 0.070392206347 -0.01 -0.0180736467 0.072325550114 -0.005 -0.018570045009 
0.070392206347 -0.005 -0.0180736467 0.072325550114 0 -0.018570045009 0.070392206347 0 -0.0180736467 
0.072325550114 0.005 -0.018570045009 0.070392206347 0.005 -0.0180736467 0.072325550114 0.01 -0.018570045009 
0.070392206347 0.01 -0.0180736467 0.074082685338 -0.01 -0.0093588195923 0.072102371358 -0.01 -0.0091086477582 
0.074082685338 -0.005 -0.0093588195923 0.072102371358 -0.005 -0.0091086477582 0.074082685338 0 -0.0093588195923 
0.072102371358 0 -0.0091086477582 0.074082685338 0.005 -0.0093588195923 0.072102371358 0.005 -0.0091086477582 
0.074082685338 0.01 -0.0093588195923 0.072102371358 0.01 -0.0091086477582 
CELLS 1201 4800
OFFSETS vtktypeint64
0 4 8 12 16 20 24 28 32 
36 40 44 48 52 56 60 64 68 
72 76 80 84 88 92 96 100 104 
108 112 116 120 124 128 132 136 140 
144 148 152 156 160 164 168 172 176 
180 184 188 192 196 200 204 208 212 
216 220 224 228 232 236 240 244 248 
252 256 260 264 268 272 276 280 284 
288 292 296 300 304 308 312 316 320 
324 328 332 336 340 344 348 352 356 
360 364 368 372 376 380 384 388 392 
396 400 404 408 412 416 420 424 428 
432 436 440 444 448 452 456 460 464 
468 472 476 480 484 488 492 496 500 
504 508 512 516 520 524 528 532 536 
540 544 548 552 556 560 564 568 572 
576 580 584 588 592 596 600 604 608 
612 616 620 624 628 632 636 640 644 
648 652 656 660 664 668 672 676 680 
684 688 692 696 700 704 708 712 716 
720 724 728 732 736 740 744 748 752 
756 760 764 768 772 776 780 784 788 
792 796 800 804 808 812 816 820 824 
828 832 836 840 844 848 852 856 860 
864 868 872 876 880 884 888 892 896 
900 904 908 912 916 920 924 928 932 
936 940 944 948 952 956 960 964 968 
972 976 980 984 988 992 996 1000 1004 
1008 1012 1016 1020 1024 1028 1032 1036 1040 
1044 1048 1052 1056 1060 1064 1068 1072 1076 
1080 1084 1088 1092 1096 1100 1104 1108 1112 
1116 1120 1124 1128 1132 1136 1140 1144 1148 
1152 1156 1160 1164 1168 1172 1176 1180 1184 
1188 1192 1196 1200 1204 1208 1212 1216 1220 
1224 1228 1232 1236 1240 1244 1248 1252 1256 
1260 1264 1268 1272 1276 1280 1284 1288 1292 
1296 1300 1304 1308 1312 1316 1320 1324 1328 
1332 1336 1340 1344 1348 1352 1356 1360 1364 
1368 1372 1376 1380 1384 1388 1392 1396 1400 
1404 1408 1412 1416 1420 1424 1428 1432 1436 
1440 1444 1448 1452 1456 1460 1464 1468 1472 
1476 1480 1484 1488 1492 1496 1500 1504 1508 
1512 1516 1520 1524 1528 1532 1536 1540 1544 
1548 1552 1556 1560 1564 1568 1572 1576 1580 
1584 1588 1592 1596 1600 1604 1608 1612 1616 
1620 1624 1628 1632 1636 1640 1644 1648 1652 
1656 1660 1664 1668 1672 1676 1680 1684 1688 
1692 1696 1700 1704 1708 1712 1716 1720 1724 
1728 1732 1736 1740 1744 1748 1752 1756 1760 
1764 1768 1772 1776 1780 1784 1788 1792 1796 
1800 1804 1808 1812 1816 1820 1824 1828 1832 
1836 1840 1844 1848 1852 1856 1860 1864 1868 
1872 1876 1880 1884 1888 1892 1896 1900 1904 
1908 1912 1916 1920 1924 1928 1932 1936 1940 
1944 1948 1952 1956 1960 1964 1968 1972 1976 
1980 1984 1988 1992 1996 2000 2004 2008 2012 
2016 2020 2024 2028 2032 2036 2040 2044 2048 
2052 2056 2060 2064 2068 2072 2076 2080 2084 
2088 2092 2096 2100 2104 2108 2112 2116 2120 
2124 2128 2132 2136 2140 2144 2148 2152 2156 
2160 2164 2168 2172 2176 2180 2184 2188 2192 
2196 2200 2204 2208 2212 2216 2220 2224 2228 
2232 2236 2240 2244 2248 2252 2256 2260 2264 
2268 2272 2276 2280 2284 2288 2292 2296 2300 
2304 2308 2312 2316 2320 2324 2328 2332 2336 
2340 2344 2348 2352 2356 2360 2364 2368 2372 
2376 2380 2384 2388 2392 2396 2400 2404 2408 
2412 2416 2420 2424 2428 2432 2436 2440 2444 
2448 2452 2456 2460 2464 2468 2472 2476 2480 
2484 2488 2492 2496 2500 2504 2508 2512 2516 
2520 2524 2528 2532 2536 2540 2544 2548 2552 
2556 2560 2564 2568 2572 2576 2580 2584 2588 
2592 2596 2600 2604 2608 2612 2616 2620 2624 
2628 2632 2636 2640 2644 2648 2652 2656 2660 
2664 2668 2672 2676 2680 2684 2688 2692 2696 
2700 2704 2708 2712 2716 2720 2724 2728 2732 
2736 2740 2744 2748 2752 2756 2760 2764 2768 
2772 2776 2780 2784 2788 2792 2796 2800 2804 
2808 2812 2816 2820 2824 2828 2832 2836 2840 
2844 2848 2852 2856 2860 2864 2868 2872 2876 
2880 2884 2888 2892 2896 2900 2904 2908 2912 
2916 2920 2924 2928 2932 2936 2940 2944 2948 
2952 2956 2960 2964 2968 2972 2976 2980 2984 
2988 2992 2996 3000 3004 3008 3012 3016 3020 
3024 3028 3032 3036 3040 3044 3048 3052 3056 
3060 3064 3068 3072 3076 3080 3084 3088 3092 
3096 3100 3104 3108 3112 3116 3120 3124 3128 
3132 3136 3140 3144 3148 3152 3156 3160 3164 
3168 3172 3176 3180 3184 3188 3192 3196 3200 
3204 3208 3212 3216 3220 3224 3228 3232 3236 
3240 3244 3248 3252 3256 3260 3264 3268 3272 
3276 3280 3284 3288 3292 3296 3300 3304 3308 
3312 3316 3320 3324 3328 3332 3336 3340 3344 
3348 3352 3356 3360 3364 3368 3372 3376 3380 
3384 3388 3392 3396 3400 3404 3408 3412 3416 
3420 3424 3428 3432 3436 3440 3444 3448 3452 
3456 3460 3464 3468 3472 3476 3480 3484 3488 
3492 3496 3500 3504 3508 3512 3516 3520 3524 
3528 3532 3536 3540 3544 3548 3552 3556 3560 
3564 3568 3572 3576 3580 3584 3588 3592 3596 
3600 3604 3608 3612 3616 3620 3624 3628 3632 
3636 3640 3644 3648 3652 3656 3660 3664 3668 
3672 3676 3680 3684 3688 3692 3696 3700 3704 
3708 3712 3716 3720 3724 3728 3732 3736 3740 
3744 3748 3752 3756 3760 3764 3768 3772 3776 
3780 3784 3788 3792 3796 3800 3804 3808 3812 
3816 3820 3824 3828 3832 3836 3840 3844 3848 
3852 3856 3860 3864 3868 3872 3876 3880 3884 
3888 3892 3896 3900 3904 3908 3912 3916 3920 
3924 3928 3932 3936 3940 3944 3948 3952 3956 
3960 3964 3968 3972 3976 3980 3984 3988 3992 
3996 4000 4004 4008 4012 4016 4020 4024 4028 
4032 4036 4040 4044 4048 4052 4056 4060 4064 
4068 4072 4076 4080 4084 4088 4092 4096 4100 
4104 4108 4112 4116 4120 4124 4128 4132 4136 
4140 4144 4148 4152 4156 4160 4164 4168 4172 
4176 4180 4184 4188 4192 4196 4200 4204 4208 
4212 4216 4220 4224 4228 4232 4236 4240 4244 
4248 4252 4256 4260 4264 4268 4272 4276 4280 
4284 4288 4292 4296 4300 4304 4308 4312 4316 
4320 4324 4328 4332 4336 4340 4344 4348 4352 
4356 4360 4364 4368 4372 4376 4380 4384 4388 
4392 4396 4400 4404 4408 4412 4416 4420 4424 
4428 4432 4436 4440 4444 4448 4452 4456 4460 
4464 4468 4472 4476 4480 4484 4488 4492 4496 
4500 4504 4508 4512 4516 4520 4524 4528 4532 
4536 4540 4544 4548 4552 4556 4560 4564 4568 
4572 4576 4580 4584 4588 4592 4596 4600 4604 
4608 4612 4616 4620 4624 4628 4632 4636 4640 
4644 4648 4652 4656 4660 4664 4668 4672 4676 
4680 4684 4688 4692 4696 4700 4704 4708 4712 
4716 4720 4724 4728 4732 4736 4740 4744 4748 
4752 4756 4760 4764 4768 4772 4776 4780 4784 
4788 4792 4796 4800 
CONNECTIVITY vtktypeint64
0 2 3 10 2 3 10 12 3 
10 12 13 0 3 1 10 3 1 
10 13 1 10 13 11 2 4 5 
12 4 5 12 14 5 12 14 15 
2 5 3 12 5 3 12 15 3 
12 15 13 4 6 7 14 6 7 
14 16 7 14 16 17 4 7 5 
14 7 5 14 17 5 14 17 15 
6 8 9 16 8 9 16 18 9 
16 18 19 6 9 7 16 9 7 
16 19 7 16 19 17 10 12 13 
20 12 13 20 22 13 20 22 23 
10 13 11 20 13 11 20 23 11 
20 23 21 12 14 15 22 14 15 
22 24 15 22 24 25 12 15 13 
22 15 13 22 25 13 22 25 23 
14 16 17 24 16 17 24 26 17 
24 26 27 14 17 15 24 17 15 
24 27 15 24 27 25 16 18 19 
26 18 19 26 28 19 26 28 29 
16 19 17 26 19 17 26 29 17 
26 29 27 20 22 23 30 22 23 
30 32 23 30 32 33 20 23 21 
30 23 21 30 33 21 30 33 31 
22 24 25 32 24 25 32 34 25 
32 34 35 22 25 23 32 25 23 
32 35 23 32 35 33 24 26 27 
34 26 27 34 36 27 34 36 37 
24 27 25 34 27 25 34 37 25 
34 37 35 26 28 29 36 28 29 
36 38 29 36 38 39 26 29 27 
36 29 27 36 39 27 36 39 37 
30 32 33 40 32 33 40 42 33 
40 42 43 30 33 31 40 33 31 
40 43 31 40 43 41 32 34 35 
42 34 35 42 44 35 42 44 45 
32 35 33 42 35 33 42 45 33 
42 45 43 34 36 37 44 36 37 
44 46 37 44 46 47 34 37 35 
44 37 35 44 47 35 44 47 45 
36 38 39 46 38 39 46 48 39 
46 48 49 36 39 37 46 39 37 
46 49 37 46 49 47 40 42 43 
50 42 43 50 52 43 50 52 53 
40 43 41 50 43 41 50 53 41 
50 53 51 42 44 45 52 44 45 
52 54 45 52 54 55 42 45 43 
52 45 43 52 55 43 52 55 53 
44 46 47 54 46 47 54 56 47 
54 56 57 44 47 45 54 47 45 
54 57 45 54 57 55 46 48 49 
56 48 49 56 58 49 56 58 59 
46 49 47 56 49 47 56 59 47 
56 59 57 50 52 53 60 52 53 
60 62 53 60 62 63 50 53 51 
60 53 51 60 63 51 60 63 61 
52 54 55 62 54 55 62 64 55 
62 64 65 52 55 53 62 55 53 
62 65 53 62 65 63 54 56 57 
64 56 57 64 66 57 64 66 67 
54 57 55 64 57 55 64 67 55 
64 67 65 56 58 59 66 58 59 
66 68 59 66 68 69 56 59 57 
66 59 57 66 69 57 66 69 67 
60 62 63 70 62 63 70 72 63 
70 72 73 60 63 61 70 63 61 
70 73 61 70 73 71 62 64 65 
72 64 65 72 74 65 72 74 75 
62 65 63 72 65 63 72 75 63 
72 75 73 64 66 67 74 66 67 
74 76 67 74 76 77 64 67 65 
74 67 65 74 77 65 74 77 75 
66 68 69 76 68 69 76 78 69 
76 78 79 66 69 67 76 69 67 
76 79 67 76 79 77 70 72 73 
80 72 73 80 82 73 80 82 83 
70 73 71 80 73 71 80 83 71 
80 83 81 72 74 75 82 74 75 
82 84 75 82 84 85 72 75 73 
82 75 73 82 85 73 82 85 83 
74 76 77 84 76 77 84 86 77 
84 86 87 74 77 75 84 77 75 
84 87 75 84 87 85 76 78 79 
86 78 79 86 88 79 86 88 89 
76 79 77 86 79 77 86 89 77 
86 89 87 80 82 83 90 82 83 
90 92 83 90 92 93 80 83 81 
90 83 81 90 93 81 90 93 91 
82 84 85 92 84 85 92 94 85 
92 94 95 82 85 83 92 85 83 
92 95 83 92 95 93 84 86 87 
94 86 87 94 96 87 94 96 97 
84 87 85 94 87 85 94 97 85 
94 97 95 86 88 89 96 88 89 
96 98 89 96 98 99 86 89 87 
96 89 87 96 99 87 96 99 97 
90 92 93 100 92 93 100 102 93 
100 102 103 90 93 91 100 93 91 
100 103 91 100 103 101 92 94 95 
102 94 95 102 104 95 102 104 105 
92 95 93 102 95 93 102 105 93 
102 105 103 94 96 97 104 96 97 
104 106 97 104 106 107 94 97 95 
104 97 95 104 107 95 104 107 105 
96 98 99 106 98 99 106 108 99 
106 108 109 96 99 97 106 99 97 
106 109 97 106 109 107 100 102 103 
110 102 103 110 112 103 110 112 113 
100 103 101 110 103 101 110 113 101 
110 113 111 102 104 105 112 104 105 
112 114 105 112 114 115 102 105 103 
112 105 103 112 115 103 112 115 113 
104 106 107 114 106 107 114 116 107 
114 116 117 104 107 105 114 107 105 
114 117 105 114 117 115 106 108 109 
116 108 109 116 118 109 116 118 119 
106 109 107 116 109 107 116 119 107 
116 119 117 110 112 113 120 112 113 
120 122 113 120 122 123 110 113 111 
120 113 111 120 123 111 120 123 121 
112 114 115 122 114 115 122 124 115 
122 124 125 112 115 113 122 115 113 
122 125 113 122 125 123 114 116 117 
124 116 117 124 126 117 124 126 127 
114 117 115 124 117 115 124 127 115 
124 127 125 116 118 119 126 118 119 
126 128 119 126 128 129 116 119 117 
126 119 117 126 129 117 126 129 127 
120 122 123 130 122 123 130 132 123 
130 132 133 120 123 121 130 123 121 
130 133 121 130 133 131 122 124 125 
132 124 125 132 134 125 132 134 135 
122 125 123 132 125 123 132 135 123 
132 135 133 124 126 127 134 126 127 
134 136 127 134 136 137 124 127 125 
134 127 125 134 137 125 134 137 135 
126 128 129 136 128 129 136 138 129 
136 138 139 126 129 127 136 129 127 
136 139 127 136 139 137 130 132 133 
140 132 133 140 142 133 140 142 143 
130 133 131 140 133 131 140 143 131 
140 143 141 132 134 135 142 134 135 
142 144 135 142 144 145 132 135 133 
142 135 133 142 145 133 142 145 143 
134 136 137 144 136 137 144 146 137 
144 146 147 134 137 135 144 137 135 
144 147 135 144 147 145 136 138 139 
146 138 139 146 148 139 146 148 149 
136 139 137 146 139 137 146 149 137 
146 149 147 140 142 143 150 142 143 
150 152 143 150 152 153 140 143 141 
150 143 141 150 153 141 150 153 151 
142 144 145 152 144 145 152 154 145 
152 154 155 142 145 143 152 145 143 
152 155 143 152 155 153 144 146 147 
154 146 147 154 156 147 154 156 157 
144 147 145 154 147 145 154 157 145 
154 157 155 146 148 149 156 148 149 
156 158 149 156 158 159 146 149 147 
156 149 147 156 159 147 156 159 157 
150 152 153 160 152 153 160 162 153 
160 162 163 150 153 151 160 153 151 
160 163 151 160 163 161 152 154 155 
162 154 155 162 164 155 162 164 165 
152 155 153 162 155 153 162 165 153 
162 165 163 154 156 157 164 156 157 
164 166 157 164 166 167 154 157 155 
164 157 155 164 167 155 164 167 165 
156 158 159 166 158 159 166 168 159 
166 168 169 156 159 157 166 159 157 
166 169 157 166 169 167 160 162 163 
170 162 163 170 172 163 170 172 173 
160 163 161 170 163 161 170 173 161 
170 173 171 162 164 165 172 164 165 
172 174 165 172 174 175 162 165 163 
172 165 163 172 175 163 172 175 173 
164 166 167 174 166 167 174 176 167 
174 176 177 164 167 165 174 167 165 
174 177 165 174 177 175 166 168 169 
176 168 169 176 178 169 176 178 179 
166 169 167 176 169 167 176 179 167 
176 179 177 170 172 173 180 172 173 
180 182 173 180 182 183 170 173 171 
180 173 171 180 183 171 180 183 181 
172 174 175 182 174 175 182 184 175 
182 184 185 172 175 173 182 175 173 
182 185 173 182 185 183 174 176 177 
184 176 177 184 186 177 184 186 187 
174 177 175 184 177 175 184 187 175 
184 187 185 176 178 179 186 178 179 
186 188 179 186 188 189 176 179 177 
186 179 177 186 189 177 186 189 187 
180 182 183 190 182 183 190 192 183 
190 192 193 180 183 181 190 183 181 
190 193 181 190 193 191 182 184 185 
192 184 185 192 194 185 192 194 195 
182 185 183 192 185 183 192 195 183 
192 195 193 184 186 187 194 186 187 
194 196 187 194 196 197 184 187 185 
194 187 185 194 197 185 194 197 195 
186 188 189 196 188 189 196 198 189 
196 198 199 186 189 187 196 189 187 
196 199 187 196 199 197 190 192 193 
200 192 193 200 202 193 200 202 203 
190 193 191 200 193 191 200 203 191 
200 203 201 192 194 195 202 194 195 
202 204 195 202 204 205 192 195 193 
202 195 193 202 205 193 202 205 203 
194 196 197 204 196 197 204 206 197 
204 206 207 194 197 195 204 197 195 
204 207 195 204 207 205 196 198 199 
206 198 199 206 208 199 206 208 209 
196 199 197 206 199 197 206 209 197 
206 209 207 200 202 203 210 202 203 
210 212 203 210 212 213 200 203 201 
210 203 201 210 213 201 210 213 211 
202 204 205 212 204 205 212 214 205 
212 214 215 202 205 203 212 205 203 
212 215 203 212 215 213 204 206 207 
214 206 207 214 216 207 214 216 217 
204 207 205 214 207 205 214 217 205 
214 217 215 206 208 209 216 208 209 
216 218 209 216 218 219 206 209 207 
216 209 207 216 219 207 216 219 217 
210 212 213 220 212 213 220 222 213 
220 222 223 210 213 211 220 213 211 
220 223 211 220 223 221 212 214 215 
222 214 215 222 224 215 222 224 225 
212 215 213 222 215 213 222 225 213 
222 225 223 214 216 217 224 216 217 
224 226 217 224 226 227 214 217 215 
224 217 215 224 227 215 224 227 225 
216 218 219 226 218 219 226 228 219 
226 228 229 216 219 217 226 219 217 
226 229 217 226 229 227 220 222 223 
230 222 223 230 232 223 230 232 233 
220 223 221 230 223 221 230 233 221 
230 233 231 222 224 225 232 224 225 
232 234 225 232 234 235 222 225 223 
232 225 223 232 235 223 232 235 233 
224 226 227 234 226 227 234 236 227 
234 236 237 224 227 225 234 227 225 
234 237 225 234 237 235 226 228 229 
236 228 229 236 238 229 236 238 239 
226 229 227 236 229 227 236 239 227 
236 239 237 230 232 233 240 232 233 
240 242 233 240 242 243 230 233 231 
240 233 231 240 243 231 240 243 241 
232 234 235 242 234 235 242 244 235 
242 244 245 232 235 233 242 235 233 
242 245 233 242 245 243 234 236 237 
244 236 237 244 246 237 244 246 247 
234 237 235 244 237 235 244 247 235 
244 247 245 236 238 239 246 238 239 
246 248 239 246 248 249 236 239 237 
246 239 237 246 249 237 246 249 247 
240 242 243 250 242 243 250 252 243 
250 252 253 240 243 241 250 243 241 
250 253 241 250 253 251 242 244 245 
252 244 245 252 254 245 252 254 255 
242 245 243 252 245 243 252 255 243 
252 255 253 244 246 247 254 246 247 
254 256 247 254 256 257 244 247 245 
254 247 245 254 257 245 254 257 255 
246 248 249 256 248 249 256 258 249 
256 258 259 246 249 247 256 249 247 
256 259 247 256 259 257 250 252 253 
260 252 253 260 262 253 260 262 263 
250 253 251 260 253 251 260 263 251 
260 263 261 252 254 255 262 254 255 
262 264 255 262 264 265 252 255 253 
262 255 253 262 265 253 262 265 263 
254 256 257 264 256 257 264 266 257 
264 266 267 254 257 255 264 257 255 
264 267 255 264 267 265 256 258 259 
266 258 259 266 268 259 266 268 269 
256 259 257 266 259 257 266 269 257 
266 269 267 260 262 263 270 262 263 
270 272 263 270 272 273 260 263 261 
270 263 261 270 273 261 270 273 271 
262 264 265 272 264 265 272 274 265 
272 274 275 262 265 263 272 265 263 
272 275 263 272 275 273 264 266 267 
274 266 267 274 276 267 274 276 277 
264 267 265 274 267 265 274 277 265 
274 277 275 266 268 269 276 268 269 
276 278 269 276 278 279 266 269 267 
276 269 267 276 279 267 276 279 277 
270 272 273 280 272 273 280 282 273 
280 282 283 270 273 271 280 273 271 
280 283 271 280 283 281 272 274 275 
282 274 275 282 284 275 282 284 285 
272 275 273 282 275 273 282 285 273 
282 285 283 274 276 277 284 276 277 
284 286 277 284 286 287 274 277 275 
284 277 275 284 287 275 284 287 285 
276 278 279 286 278 279 286 288 279 
286 288 289 276 279 277 286 279 277 
286 289 277 286 289 287 280 282 283 
290 282 283 290 292 283 290 292 293 
280 283 281 290 283 281 290 293 281 
290 293 291 282 284 285 292 284 285 
292 294 285 292 294 295 282 285 283 
292 285 283 292 295 283 292 295 293 
284 286 287 294 286 287 294 296 287 
294 296 297 284 287 285 294 287 285 
294 297 285 294 297 295 286 288 289 
296 288 289 296 298 289 296 298 299 
286 289 287 296 289 287 296 299 287 
296 299 297 290 292 293 300 292 293 
300 302 293 300 302 303 290 293 291 
300 293 291 300 303 291 300 303 301 
292 294 295 302 294 295 302 304 295 
302 304 305 292 295 293 302 295 293 
302 305 293 302 305 303 294 296 297 
304 296 297 304 306 297 304 306 307 
294 297 295 304 297 295 304 307 295 
304 307 305 296 298 299 306 298 299 
306 308 299 306 308 309 296 299 297 
306 299 297 306 309 297 306 309 307 
300 302 303 310 302 303 310 312 303 
310 312 313 300 303 301 310 303 301 
310 313 301 310 313 311 302 304 305 
312 304 305 312 314 305 312 314 315 
302 305 303 312 305 303 312 315 303 
312 315 313 304 306 307 314 306 307 
314 316 307 314 316 317 304 307 305 
314 307 305 314 317 305 314 317 315 
306 308 309 316 308 309 316 318 309 
316 318 319 306 309 307 316 309 307 
316 319 307 316 319 317 310 312 313 
320 312 313 320 322 313 320 322 323 
310 313 311 320 313 311 320 323 311 
320 323 321 312 314 315 322 314 315 
322 324 315 322 324 325 312 315 313 
322 315 313 322 325 313 322 325 323 
314 316 317 324 316 317 324 326 317 
324 326 327 314 317 315 324 317 315 
324 327 315 324 327 325 316 318 319 
326 318 319 326 328 319 326 328 329 
316 319 317 326 319 317 326 329 317 
326 329 327 320 322 323 330 322 323 
330 332 323 330 332 333 320 323 321 
330 323 321 330 333 321 330 333 331 
322 324 325 332 324 325 332 334 325 
332 334 335 322 325 323 332 325 323 
332 335 323 332 335 333 324 326 327 
334 326 327 334 336 327 334 336 337 
324 327 325 334 327 325 334 337 325 
334 337 335 326 328 329 336 328 329 
336 338 329 336 338 339 326 329 327 
336 329 327 336 339 327 336 339 337 
330 332 333 340 332 333 340 342 333 
340 342 343 330 333 331 340 333 331 
340 343 331 340 343 341 332 334 335 
342 334 335 342 344 335 342 344 345 
332 335 333 342 335 333 342 345 333 
342 345 343 334 336 337 344 336 337 
344 346 337 344 346 347 334 337 335 
344 337 335 344 347 335 344 347 345 
336 338 339 346 338 339 346 348 339 
346 348 349 336 339 337 346 339 337 
346 349 337 346 349 347 340 342 343 
350 342 343 350 352 343 350 352 353 
340 343 341 350 343 341 350 353 341 
350 353 351 342 344 345 352 344 345 
352 354 345 352 354 355 342 345 343 
352 345 343 352 355 343 352 355 353 
344 346 347 354 346 347 354 356 347 
354 356 357 344 347 345 354 347 345 
354 357 345 354 357 355 346 348 349 
356 348 349 356 358 349 356 358 359 
346 349 347 356 349 347 356 359 347 
356 359 357 350 352 353 360 352 353 
360 362 353 360 362 363 350 353 351 
360 353 351 360 363 351 360 363 361 
352 354 355 362 354 355 362 364 355 
362 364 365 352 355 353 362 355 353 
362 365 353 362 365 363 354 356 357 
364 356 357 364 366 357 364 366 367 
354 357 355 364 357 355 364 367 355 
364 367 365 356 358 359 366 358 359 
366 368 359 366 368 369 356 359 357 
366 359 357 366 369 357 366 369 367 
360 362 363 370 362 363 370 372 363 
370 372 373 360 363 361 370 363 361 
370 373 361 370 373 371 362 364 365 
372 364 365 372 374 365 372 374 375 
362 365 363 372 365 363 372 375 363 
372 375 373 364 366 367 374 366 367 
374 376 367 374 376 377 364 367 365 
374 367 365 374 377 365 374 377 375 
366 368 369 376 368 369 376 378 369 
376 378 379 366 369 367 376 369 367 
376 379 367 376 379 377 370 372 373 
380 372 373 380 382 373 380 382 383 
370 373 371 380 373 371 380 383 371 
380 383 381 372 374 375 382 374 375 
382 384 375 382 384 385 372 375 373 
382 375 373 382 385 373 382 385 383 
374 376 377 384 376 377 384 386 377 
384 386 387 374 377 375 384 377 375 
384 387 375 384 387 385 376 378 379 
386 378 379 386 388 379 386 388 389 
376 379 377 386 379 377 386 389 377 
386 389 387 380 382 383 390 382 383 
390 392 383 390 392 393 380 383 381 
390 383 381 390 393 381 390 393 391 
382 384 385 392 384 385 392 394 385 
392 394 395 382 385 383 392 385 383 
392 395 383 392 395 393 384 386 387 
394 386 387 394 396 387 394 396 397 
384 387 385 394 387 385 394 397 385 
394 397 395 386 388 389 396 388 389 
396 398 389 396 398 399 386 389 387 
396 389 387 396 399 387 396 399 397 
390 392 393 400 392 393 400 402 393 
400 402 403 390 393 391 400 393 391 
400 403 391 400 403 401 392 394 395 
402 394 395 402 404 395 402 404 405 
392 395 393 402 395 393 402 405 393 
402 405 403 394 396 397 404 396 397 
404 406 397 404 406 407 394 397 395 
404 397 395 404 407 395 404 407 405 
396 398 399 406 398 399 406 408 399 
406 408 409 396 399 397 406 399 397 
406 409 397 406 409 407 400 402 403 
410 402 403 410 412 403 410 412 413 
400 403 401 410 403 401 410 413 401 
410 413 411 402 404 405 412 404 405 
412 414 405 412 414 415 402 405 403 
412 405 403 412 415 403 412 415 413 
404 406 407 414 406 407 414 416 407 
414 416 417 404 407 405 414 407 405 
414 417 405 414 417 415 406 408 409 
416 408 409 416 418 409 416 418 419 
406 409 407 416 409 407 416 419 407 
416 419 417 410 412 413 420 412 413 
420 422 413 420 422 423 410 413 411 
420 413 411 420 423 411 420 423 421 
412 414 415 422 414 415 422 424 415 
422 424 425 412 415 413 422 415 413 
422 425 413 422 425 423 414 416 417 
424 416 417 424 426 417 424 426 427 
414 417 415 424 417 415 424 427 415 
424 427 425 416 418 419 426 418 419 
426 428 419 426 428 429 416 419 417 
426 419 417 426 429 417 426 429 427 
420 422 423 430 422 423 430 432 423 
430 432 433 420 423 421 430 423 421 
430 433 421 430 433 431 422 424 425 
432 424 425 432 434 425 432 434 435 
422 425 423 432 425 423 432 435 423 
432 435 433 424 426 427 434 426 427 
434 436 427 434 436 437 424 427 425 
434 427 425 434 437 425 434 437 435 
426 428 429 436 428 429 436 438 429 
436 438 439 426 429 427 436 429 427 
436 439 427 436 439 437 430 432 433 
440 432 433 440 442 433 440 442 443 
430 433 431 440 433 431 440 443 431 
440 443 441 432 434 435 442 434 435 
442 444 435 442 444 445 432 435 433 
442 435 433 442 445 433 442 445 443 
434 436 437 444 436 437 444 446 437 
444 446 447 434 437 435 444 437 435 
444 447 435 444 447 445 436 438 439 
446 438 439 446 448 439 446 448 449 
436 439 437 446 439 437 446 449 437 
446 449 447 440 442 443 450 442 443 
450 452 443 450 452 453 440 443 441 
450 443 441 450 453 441 450 453 451 
442 444 445 452 444 445 452 454 445 
452 454 455 442 445 443 452 445 443 
452 455 443 452 455 453 444 446 447 
454 446 447 454 456 447 454 456 457 
444 447 445 454 447 445 454 457 445 
454 457 455 446 448 449 456 448 449 
456 458 449 456 458 459 446 449 447 
456 449 447 456 459 447 456 459 457 
450 452 453 460 452 453 460 462 453 
460 462 463 450 453 451 460 453 451 
460 463 451 460 463 461 452 454 455 
462 454 455 462 464 455 462 464 465 
452 455 453 462 455 453 462 465 453 
462 465 463 454 456 457 464 456 457 
464 466 457 464 466 467 454 457 455 
464 457 455 464 467 455 464 467 465 
456 458 459 466 458 459 466 468 459 
466 468 469 456 459 457 466 459 457 
466 469 457 466 469 467 460 462 463 
470 462 463 470 472 463 470 472 473 
460 463 461 470 463 461 470 473 461 
470 473 471 462 464 465 472 464 465 
472 474 465 472 474 475 462 465 463 
472 465 463 472 475 463 472 475 473 
464 466 467 474 466 467 474 476 467 
474 476 477 464 467 465 474 467 465 
474 477 465 474 477 475 466 468 469 
476 468 469 476 478 469 476 478 479 
466 469 467 476 469 467 476 479 467 
476 479 477 470 472 473 480 472 473 
480 482 473 480 482 483 470 473 471 
480 473 471 480 483 471 480 483 481 
472 474 475 482 474 475 482 484 475 
482 484 485 472 475 473 482 475 473 
482 485 473 482 485 483 474 476 477 
484 476 477 484 486 477 484 486 487 
474 477 475 484 477 475 484 487 475 
484 487 485 476 478 479 486 478 479 
486 488 479 486 488 489 476 479 477 
486 479 477 486 489 477 486 489 487 
480 482 483 490 482 483 490 492 483 
490 492 493 480 483 481 490 483 481 
490 493 481 490 493 491 482 484 485 
492 484 485 492 494 485 492 494 495 
482 485 483 492 485 483 492 495 483 
492 495 493 484 486 487 494 486 487 
494 496 487 494 496 497 484 487 485 
494 487 485 494 497 485 494 497 495 
486 488 489 496 488 489 496 498 489 
496 498 499 486 489 487 496 489 487 
496 499 487 496 499 497 490 492 493 
0 492 493 0 2 493 0 2 3 
490 493 491 0 493 491 0 3 491 
0 3 1 492 494 495 2 494 495 
2 4 495 2 4 5 492 495 493 
2 495 493 2 5 493 2 5 3 
494 496 497 4 496 497 4 6 497 
4 6 7 494 497 495 4 497 495 
4 7 495 4 7 5 496 498 499 
6 498 499 6 8 499 6 8 9 
496 499 497 6 499 497 6 9 497 
6 9 7 
CELL_TYPES 1200
10
10
10
10
10
10
10
10
10
10
10
10
10
10
10
10
10
10
10
10
10
10
10
10
10
10
10
10
10
10
10
10
10
10
10
10
10
10
10
10
10
10
10
10
10
10
10
10
10
10
10
10
10
10
10
10
10
10
10
10
10
10
10
10
10
10
10
10
10
10
10
10
10
10
10
10
10
10
10
10
10
10
10
10
10
10
10
10
10
10
10
10
10
10
10
10
10
10
10
10
10
10
10
10
10
10
10
10
10
10
10
10
10
10
10
10
10
10
10
10
10
10
10
10
10
10
10
10
10
10
10
10
10
10
10
10
10
10
10
10
10
10
10
10
10
10
10
10
10
10
10
10
10
10
10
10
10
10
10
10
10
10
10
10
10
10
10
10
10
10
10
10
10
10
10
10
10
10
10
10
10
10
10
10
10
10
10
10
10
10
10
10
10
10
10
10
10
10
10
10
10
10
10
10
10
10
10
10
10
10
10
10
10
10
10
10
10
10
10
10
10
10
10
10
10
10
10
10
10
10
10
10
10
10
10
10
10
10
10
10
10
10
10
10
10
10
10
10
10
10
10
10
10
10
10
10
10
10
10
10
10
10
10
10
10
10
10
10
10
10
10
10
10
10
10
10
10
10
10
10
10
10
10
10
10
10
10
10
10
10
10
10
10
10
10
10
10
10
10
10
10
10
10
10
10
10
10
10
10
10
10
10
10
10
10
10
10
10
10
10
10
10
10
10
10
10
10
10
10
10
10
10
10
10
10
10
10
10
10
10
10
10
10
10
10
10
10
10
10
10
10
10
10
10
10
10
10
10
10
10
10
10
10
10
10
10
10
10
10
10
10
10
10
10
10
10
10
10
10
10
10
10
10
10
10
10
10
10
10
10
10
10
10
10
10
10
10
10
10
10
10
10
10
10
10
10
10
10
10
10
10
10
10
10
10
10
10
10
10
10
10
10
10
10
10
10
10
10
10
10
10
10
10
10
10
10
10
10
10
10
10
10
10
10
10
10
10
10
10
10
10
10
10
10
10
10
10
10
10
10
10
10
10
10
10
10
10
10
10
10
10
10
10
10
10
10
10
10
10
10
10
10
10
10
10
10
10
10
10
10
10
10
10
10
10
10
10
10
10
10
10
10
10
10
10
10
10
10
10
10
10
10
10
10
10
10
10
10
10
10
10
10
10
10
10
10
10
10
10
10
10
10
10
10
10
10
10
10
10
10
10
10
10
10
10
10
10
10
10
10
10
10
10
10
10
10
10
10
10
10
10
10
10
10
10
10
10
10
10
10
10
10
10
10
10
10
10
10
10
10
10
10
10
10
10
10
10
10
10
10
10
10
10
10
10
10
10
10
10
10
10
10
10
10
10
10
10
10
10
10
10
10
10
10
10
10
10
10
10
10
10
10
10
10
10
10
10
10
10
10
10
10
10
10
10
10
10
10
10
10
10
10
10
10
10
10
10
10
10
10
10
10
10
10
10
10
10
10
10
10
10
10
10
10
10
10
10
10
10
10
10
10
10
10
10
10
10
10
10
10
10
10
10
10
10
10
10
10
10
10
10
10
10
10
10
10
10
10
10
10
10
10
10
10
10
10
10
10
10
10
10
10
10
10
10
10
10
10
10
10
10
10
10
10
10
10
10
10
10
10
10
10
10
10
10
10
10
10
10
10
10
10
10
10
10
10
10
10
10
10
10
10
10
10
10
10
10
10
10
10
10
10
10
10
10
10
10
10
10
10
10
10
10
10
10
10
10
10
10
10
10
10
10
10
10
10
10
10
10
10
10
10
10
10
10
10
10
10
10
10
10
10
10
10
10
10
10
10
10
10
10
10
10
10
10
10
10
10
10
10
10
10
10
10
10
10
10
10
10
10
10
10
10
10
10
10
10
10
10
10
10
10
10
10
10
10
10
10
10
10
10
10
10
10
10
10
10
10
10
10
10
10
10
10
10
10
10
10
10
10
10
10
10
10
10
10
10
10
10
10
10
10
10
10
10
10
10
10
10
10
10
10
10
10
10
10
10
10
10
10
10
10
10
10
10
10
10
10
10
10
10
10
10
10
10
10
10
10
10
10
10
10
10
10
10
10
10
10
10
10
10
10
10
10
10
10
10
10
10
10
10
10
10
10
10
10
10
10
10
10
10
10
10
10
10
10
10
10
10
10
10
10
10
10
10
10
10
10
10
10
10
10
10
10
10
10
10
10
10
10
10
10
10
10
10
10
10
10
10
10
10
10
10
10
10
10
10
10
10
10
10
10
10
10
10
10
10
10
10
10
10
10
10
10
10
10
10
10
10
10
10
10
10
10
10
10
10
10
10
10
10
10
10
10
10
10
10
10
10
10
10
10
10
10
10
10
10
10
10
10
10
10
10
10
10
10
10
10
10
10
10
10
10
10
10
10
10
10
10
10
10
10
10
10
10
10
10
10
10
10
10
10
10
10
10
10
10
10
10
10
10
10
10
10
10
10
10
10
10
10
10
10
10
10
10
10
10
10
10
10
10
10
10
10
10
10
10
10
10
10
10
10
10
10
10
10
10
10
10
10
10
10
10
10
10
10
10
10
10
10
10
10
10
10
10
10
10
10
10
10
10
10
10
10
10
10
10
10
10
10
10
10
10
10
10
10
10
10
10
10
10
10
10
10
10
10
10
10
10
10
10
10
10
10
10
10
10
10
10
10
10
10
10
10
10
10
10
10
10
10

