{
  "accessors": [
    {
      "bufferView": 2,
      "componentType": 5126,
      "count": 1506,
      "max": [
        0.4740118086338043,
        0.13341647386550903,
        0.23749274015426636
      ],
      "min": [
        -0.5403566956520081,
        -0.22344928979873657,
        -0.252946138381958
      ],
      "type": "VEC3"
    },
    {
      "bufferView": 2,
      "byteOffset": 18072,
      "componentType": 5126,
      "count": 1506,
      "max": [
        0.9728989601135254,
        0.9998622536659241,
        0.8198345303535461
      ],
      "min": [
        -0.9862593412399292,
        -0.9998596906661987,
        -0.9221348166465759
      ],
      "type": "VEC3"
    },
    {
      "bufferView": 1,
      "componentType": 5126,
      "count": 1506,
      "max": [
        1.0000001192092896,
        0.08310572803020477
      ],
      "min": [
        0.0,
        0.0
      ],
      "type": "VEC2"
    },
    {
      "bufferView": 0,
      "componentType": 5125,
      "count": 8352,
      "type": "SCALAR"
    },
    {
      "bufferView": 2,
      "byteOffset": 36144,
      "componentType": 5126,
      "count": 11199,
      "max": [
        0.8364928364753723,
        0.639392077922821,
        2.4851036071777344
      ],
      "min": [
        -0.8839506506919861,
        -0.43745288252830505,
        -2.4358882904052734
      ],
      "type": "VEC3"
    },
    {
      "bufferView": 2,
      "byteOffset": 170532,
      "componentType": 5126,
      "count": 11199,
      "max": [
        0.9999950528144836,
        0.9999973177909851,
        0.9990770816802979
      ],
      "min": [
        -0.9999999403953552,
        -0.9999855756759644,
        -0.9999735355377197
      ],
      "type": "VEC3"
    },
    {
      "bufferView": 1,
      "byteOffset": 12048,
      "componentType": 5126,
      "count": 11199,
      "max": [
        1.0000001192092896,
        1.0000001192092896
      ],
      "min": [
        0.0,
        0.0
      ],
      "type": "VEC2"
    },
    {
      "bufferView": 0,
      "byteOffset": 33408,
      "componentType": 5125,
      "count": 46080,
      "type": "SCALAR"
    },
    {
      "bufferView": 2,
      "byteOffset": 304920,
      "componentType": 5126,
      "count": 16362,
      "max": [
        0.7512760758399963,
        0.6707971692085266,
        2.363469362258911
      ],
      "min": [
        -0.8786345720291138,
        -0.5481230020523071,
        -1.9633255004882813
      ],
      "type": "VEC3"
    },
    {
      "bufferView": 2,
      "byteOffset": 501264,
      "componentType": 5126,
      "count": 16362,
      "max": [
        0.9999997615814209,
        0.9999889135360718,
        0.99980628490448
      ],
      "min": [
        -0.9999931454658508,
        -0.9999909996986389,
        -0.9999195337295532
      ],
      "type": "VEC3"
    },
    {
      "bufferView": 1,
      "byteOffset": 101640,
      "componentType": 5126,
      "count": 16362,
      "max": [
        0.0,
        0.0
      ],
      "min": [
        0.0,
        0.0
      ],
      "type": "VEC2"
    },
    {
      "bufferView": 0,
      "byteOffset": 217728,
      "componentType": 5125,
      "count": 98304,
      "type": "SCALAR"
    },
    {
      "bufferView": 2,
      "byteOffset": 697608,
      "componentType": 5126,
      "count": 2920,
      "max": [
        0.6429614424705505,
        0.7439923882484436,
        1.2902350425720215
      ],
      "min": [
        -0.5129646062850952,
        -0.5960069298744202,
        -1.4804942607879639
      ],
      "type": "VEC3"
    },
    {
      "bufferView": 2,
      "byteOffset": 732648,
      "componentType": 5126,
      "count": 2920,
      "max": [
        0.9999752640724182,
        0.9978613257408142,
        0.9834344387054443
      ],
      "min": [
        -0.999328076839447,
        -0.9996244311332703,
        -0.9998375177383423
      ],
      "type": "VEC3"
    },
    {
      "bufferView": 1,
      "byteOffset": 232536,
      "componentType": 5126,
      "count": 2920,
      "max": [
        1.0000001192092896,
        1.0000001192092896
      ],
      "min": [
        0.0,
        0.0
      ],
      "type": "VEC2"
    },
    {
      "bufferView": 0,
      "byteOffset": 610944,
      "componentType": 5125,
      "count": 14592,
      "type": "SCALAR"
    },
    {
      "bufferView": 2,
      "byteOffset": 767688,
      "componentType": 5126,
      "count": 7644,
      "max": [
        0.5382016897201538,
        0.4329775869846344,
        0.3774769902229309
      ],
      "min": [
        -0.5242397785186768,
        -0.3936728537082672,
        -1.3264814615249634
      ],
      "type": "VEC3"
    },
    {
      "bufferView": 2,
      "byteOffset": 859416,
      "componentType": 5126,
      "count": 7644,
      "max": [
        0.9998587369918823,
        0.9997051954269409,
        0.9998921155929565
      ],
      "min": [
        -0.9998589158058167,
        -0.9993748068809509,
        -0.99986732006073
      ],
      "type": "VEC3"
    },
    {
      "bufferView": 1,
      "byteOffset": 255896,
      "componentType": 5126,
      "count": 7644,
      "max": [
        1.0,
        1.0
      ],
      "min": [
        8.881784197001252e-16,
        2.220446049250313e-16
      ],
      "type": "VEC2"
    },
    {
      "bufferView": 0,
      "byteOffset": 669312,
      "componentType": 5125,
      "count": 41472,
      "type": "SCALAR"
    },
    {
      "bufferView": 2,
      "byteOffset": 951144,
      "componentType": 5126,
      "count": 1324,
      "max": [
        11.851791381835938,
        1.8158700466156006,
        1.1513073444366455
      ],
      "min": [
        -9.80118465423584,
        -3.456845760345459,
        -0.9112452268600464
      ],
      "type": "VEC3"
    },
    {
      "bufferView": 2,
      "byteOffset": 967032,
      "componentType": 5126,
      "count": 1324,
      "max": [
        0.999727725982666,
        0.9999419450759888,
        0.9999926686286926
      ],
      "min": [
        -0.9995703101158142,
        -0.9998734593391418,
        -0.9998810291290283
      ],
      "type": "VEC3"
    },
    {
      "bufferView": 1,
      "byteOffset": 317048,
      "componentType": 5126,
      "count": 1324,
      "max": [
        1.000000238418579,
        1.0000001192092896
      ],
      "min": [
        0.0,
        0.0
      ],
      "type": "VEC2"
    },
    {
      "bufferView": 0,
      "byteOffset": 835200,
      "componentType": 5125,
      "count": 6912,
      "type": "SCALAR"
    },
    {
      "bufferView": 2,
      "byteOffset": 982920,
      "componentType": 5126,
      "count": 7921,
      "max": [
        11.373958587646484,
        3.359670877456665,
        1.0071104764938354
      ],
      "min": [
        -8.66201114654541,
        -3.0724687576293945,
        -10.561240196228027
      ],
      "type": "VEC3"
    },
    {
      "bufferView": 2,
      "byteOffset": 1077972,
      "componentType": 5126,
      "count": 7921,
      "max": [
        0.9999158978462219,
        0.9996558427810669,
        0.997707724571228
      ],
      "min": [
        -0.9999817609786987,
        -0.999981164932251,
        -0.9973940253257751
      ],
      "type": "VEC3"
    },
    {
      "bufferView": 1,
      "byteOffset": 327640,
      "componentType": 5126,
      "count": 7921,
      "max": [
        1.0000001192092896,
        1.0000001192092896
      ],
      "min": [
        0.0,
        0.0
      ],
      "type": "VEC2"
    },
    {
      "bufferView": 0,
      "byteOffset": 862848,
      "componentType": 5125,
      "count": 46080,
      "type": "SCALAR"
    },
    {
      "bufferView": 2,
      "byteOffset": 1173024,
      "componentType": 5126,
      "count": 6896,
      "max": [
        13.91243839263916,
        3.3897204399108887,
        1.5690728425979614
      ],
      "min": [
        -8.42411994934082,
        -2.4542877674102783,
        -10.777583122253418
      ],
      "type": "VEC3"
    },
    {
      "bufferView": 2,
      "byteOffset": 1255776,
      "componentType": 5126,
      "count": 6896,
      "max": [
        0.9987114667892456,
        0.9995756149291992,
        0.9932919144630432
      ],
      "min": [
        -0.9996384382247925,
        -0.9996740221977234,
        -0.9977298378944397
      ],
      "type": "VEC3"
    },
    {
      "bufferView": 1,
      "byteOffset": 391008,
      "componentType": 5126,
      "count": 6896,
      "max": [
        1.0000001192092896,
        1.0000001192092896
      ],
      "min": [
        0.0,
        0.0
      ],
      "type": "VEC2"
    },
    {
      "bufferView": 0,
      "byteOffset": 1047168,
      "componentType": 5125,
      "count": 39936,
      "type": "SCALAR"
    },
    {
      "bufferView": 2,
      "byteOffset": 1338528,
      "componentType": 5126,
      "count": 6896,
      "max": [
        11.389829635620117,
        3.439974784851074,
        -0.13861101865768433
      ],
      "min": [
        -7.479008197784424,
        -4.4074625968933105,
        -10.5421781539917
      ],
      "type": "VEC3"
    },
    {
      "bufferView": 2,
      "byteOffset": 1421280,
      "componentType": 5126,
      "count": 6896,
      "max": [
        0.9996190071105957,
        0.9998700618743896,
        0.9994269609451294
      ],
      "min": [
        -0.999954342842102,
        -0.9999912977218628,
        -0.9992286562919617
      ],
      "type": "VEC3"
    },
    {
      "bufferView": 1,
      "byteOffset": 446176,
      "componentType": 5126,
      "count": 6896,
      "max": [
        1.0000001192092896,
        1.0000001192092896
      ],
      "min": [
        0.0,
        0.0
      ],
      "type": "VEC2"
    },
    {
      "bufferView": 0,
      "byteOffset": 1206912,
      "componentType": 5125,
      "count": 39936,
      "type": "SCALAR"
    },
    {
      "bufferView": 2,
      "byteOffset": 1504032,
      "componentType": 5126,
      "count": 8256,
      "max": [
        12.814078330993652,
        3.3275134563446045,
        1.4746270179748535
      ],
      "min": [
        -8.48294448852539,
        -3.2632527351379395,
        -10.737735748291016
      ],
      "type": "VEC3"
    },
    {
      "bufferView": 2,
      "byteOffset": 1603104,
      "componentType": 5126,
      "count": 8256,
      "max": [
        0.9999246597290039,
        0.9999490976333618,
        0.9962308406829834
      ],
      "min": [
        -0.9999074935913086,
        -0.9999997019767761,
        -0.9969399571418762
      ],
      "type": "VEC3"
    },
    {
      "bufferView": 1,
      "byteOffset": 501344,
      "componentType": 5126,
      "count": 8256,
      "max": [
        0.9637079238891602,
        1.0000001192092896
      ],
      "min": [
        0.0,
        0.0
      ],
      "type": "VEC2"
    },
    {
      "bufferView": 0,
      "byteOffset": 1366656,
      "componentType": 5125,
      "count": 46080,
      "type": "SCALAR"
    },
    {
      "bufferView": 2,
      "byteOffset": 1702176,
      "componentType": 5126,
      "count": 6865,
      "max": [
        12.0272855758667,
        3.324553966522217,
        0.7776644229888916
      ],
      "min": [
        -8.51815414428711,
        -4.611799716949463,
        -10.862135887145996
      ],
      "type": "VEC3"
    },
    {
      "bufferView": 2,
      "byteOffset": 1784556,
      "componentType": 5126,
      "count": 6865,
      "max": [
        0.999955415725708,
        0.9999313354492188,
        0.9965471029281616
      ],
      "min": [
        -0.9997485280036926,
        -0.9999969601631165,
        -0.9962763786315918
      ],
      "type": "VEC3"
    },
    {
      "bufferView": 1,
      "byteOffset": 567392,
      "componentType": 5126,
      "count": 6865,
      "max": [
        0.9637078046798706,
        1.0000001192092896
      ],
      "min": [
        0.0,
        0.0
      ],
      "type": "VEC2"
    },
    {
      "bufferView": 0,
      "byteOffset": 1550976,
      "componentType": 5125,
      "count": 39936,
      "type": "SCALAR"
    },
    {
      "bufferView": 2,
      "byteOffset": 1866936,
      "componentType": 5126,
      "count": 6865,
      "max": [
        9.535602569580078,
        3.0673153400421143,
        0.4997967779636383
      ],
      "min": [
        -8.504319190979004,
        -6.597426891326904,
        -10.860511779785156
      ],
      "type": "VEC3"
    },
    {
      "bufferView": 2,
      "byteOffset": 1949316,
      "componentType": 5126,
      "count": 6865,
      "max": [
        0.9999229311943054,
        0.9996222257614136,
        0.9961224794387817
      ],
      "min": [
        -0.9997481107711792,
        -0.9999957084655762,
        -0.995989203453064
      ],
      "type": "VEC3"
    },
    {
      "bufferView": 1,
      "byteOffset": 622312,
      "componentType": 5126,
      "count": 6865,
      "max": [
        0.9637078046798706,
        1.0000001192092896
      ],
      "min": [
        0.0,
        0.0
      ],
      "type": "VEC2"
    },
    {
      "bufferView": 0,
      "byteOffset": 1710720,
      "componentType": 5125,
      "count": 39936,
      "type": "SCALAR"
    },
    {
      "bufferView": 2,
      "byteOffset": 2031696,
      "componentType": 5126,
      "count": 6865,
      "max": [
        12.598931312561035,
        3.3846046924591064,
        -1.1237157583236694
      ],
      "min": [
        -8.896702766418457,
        -5.077784061431885,
        -11.611162185668945
      ],
      "type": "VEC3"
    },
    {
      "bufferView": 2,
      "byteOffset": 2114076,
      "componentType": 5126,
      "count": 6865,
      "max": [
        0.9999755620956421,
        0.9998021125793457,
        0.9964528679847717
      ],
      "min": [
        -0.9997538328170776,
        -0.9999459981918335,
        -0.9990805387496948
      ],
      "type": "VEC3"
    },
    {
      "bufferView": 1,
      "byteOffset": 677232,
      "componentType": 5126,
      "count": 6865,
      "max": [
        0.9637078046798706,
        1.0000001192092896
      ],
      "min": [
        0.0,
        0.0
      ],
      "type": "VEC2"
    },
    {
      "bufferView": 0,
      "byteOffset": 1870464,
      "componentType": 5125,
      "count": 39936,
      "type": "SCALAR"
    },
    {
      "bufferView": 2,
      "byteOffset": 2196456,
      "componentType": 5126,
      "count": 6865,
      "max": [
        11.264260292053223,
        2.044179916381836,
        -0.511860728263855
      ],
      "min": [
        -8.070282936096191,
        -6.291586875915527,
        -10.388586044311523
      ],
      "type": "VEC3"
    },
    {
      "bufferView": 2,
      "byteOffset": 2278836,
      "componentType": 5126,
      "count": 6865,
      "max": [
        0.999981701374054,
        0.999843955039978,
        0.9973514080047607
      ],
      "min": [
        -0.9997076988220215,
        -0.9999375343322754,
        -0.9961957931518555
      ],
      "type": "VEC3"
    },
    {
      "bufferView": 1,
      "byteOffset": 732152,
      "componentType": 5126,
      "count": 6865,
      "max": [
        0.9637078046798706,
        1.0000001192092896
      ],
      "min": [
        0.0,
        0.0
      ],
      "type": "VEC2"
    },
    {
      "bufferView": 0,
      "byteOffset": 2030208,
      "componentType": 5125,
      "count": 39936,
      "type": "SCALAR"
    },
    {
      "bufferView": 2,
      "byteOffset": 2361216,
      "componentType": 5126,
      "count": 2301,
      "max": [
        0.8221046328544617,
        0.6420138478279114,
        2.4751596450805664
      ],
      "min": [
        -0.8531422019004822,
        0.01667100563645363,
        -2.242741346359253
      ],
      "type": "VEC3"
    },
    {
      "bufferView": 2,
      "byteOffset": 2388828,
      "componentType": 5126,
      "count": 2301,
      "max": [
        0.9997788667678833,
        0.9999094009399414,
        0.9894869923591614
      ],
      "min": [
        -0.9997751712799072,
        -0.9998241662979126,
        -0.989619791507721
      ],
      "type": "VEC3"
    },
    {
      "bufferView": 1,
      "byteOffset": 787072,
      "componentType": 5126,
      "count": 2301,
      "max": [
        1.0,
        1.0
      ],
      "min": [
        0.0,
        0.0
      ],
      "type": "VEC2"
    },
    {
      "bufferView": 0,
      "byteOffset": 2189952,
      "componentType": 5125,
      "count": 12672,
      "type": "SCALAR"
    },
    {
      "bufferView": 2,
      "byteOffset": 2416440,
      "componentType": 5126,
      "count": 1863,
      "max": [
        0.8597500324249268,
        0.20257088541984558,
        2.31453800201416
      ],
      "min": [
        0.3110674321651459,
        -0.23294320702552795,
        -2.097492218017578
      ],
      "type": "VEC3"
    },
    {
      "bufferView": 2,
      "byteOffset": 2438796,
      "componentType": 5126,
      "count": 1863,
      "max": [
        0.9999598264694214,
        0.9991044402122498,
        0.9496827721595764
      ],
      "min": [
        -0.9999610185623169,
        -0.9995175004005432,
        -0.967697262763977
      ],
      "type": "VEC3"
    },
    {
      "bufferView": 1,
      "byteOffset": 805480,
      "componentType": 5126,
      "count": 1863,
      "max": [
        1.0,
        1.0
      ],
      "min": [
        0.0,
        0.0
      ],
      "type": "VEC2"
    },
    {
      "bufferView": 0,
      "byteOffset": 2240640,
      "componentType": 5125,
      "count": 10560,
      "type": "SCALAR"
    },
    {
      "bufferView": 2,
      "byteOffset": 2461152,
      "componentType": 5126,
      "count": 1863,
      "max": [
        -0.3781953454017639,
        0.20257097482681274,
        2.357922315597534
      ],
      "min": [
        -0.9068431258201599,
        -0.23299144208431244,
        -2.081068992614746
      ],
      "type": "VEC3"
    },
    {
      "bufferView": 2,
      "byteOffset": 2483508,
      "componentType": 5126,
      "count": 1863,
      "max": [
        0.9988746047019958,
        0.9995303153991699,
        0.9518494606018066
      ],
      "min": [
        -0.9989340305328369,
        -0.9996516108512878,
        -0.9483349919319153
      ],
      "type": "VEC3"
    },
    {
      "bufferView": 1,
      "byteOffset": 820384,
      "componentType": 5126,
      "count": 1863,
      "max": [
        1.0,
        1.0
      ],
      "min": [
        0.0,
        0.0
      ],
      "type": "VEC2"
    },
    {
      "bufferView": 0,
      "byteOffset": 2282880,
      "componentType": 5125,
      "count": 10560,
      "type": "SCALAR"
    }
  ],
  "asset": {
    "extras": {
      "author": "Taohid Animation (https://sketchfab.com/taohidanimation)",
      "license": "CC-BY-4.0 (http://creativecommons.org/licenses/by/4.0/)",
      "source": "https://sketchfab.com/3d-models/shoe-model-realistic-3d-sneaker-9a0bbbb955384ac68486c6cb3768ccb3",
      "title": "Shoe Model | Realistic 3D Sneaker"
    },
    "generator": "Sketchfab-16.72.0",
    "version": "2.0"
  },
  "bufferViews": [
    {
      "buffer": 0,
      "byteLength": 2325120,
      "name": "floatBufferViews",
      "target": 34963
    },
    {
      "buffer": 0,
      "byteLength": 835288,
      "byteOffset": 2325120,
      "byteStride": 8,
      "name": "floatBufferViews",
      "target": 34962
    },
    {
      "buffer": 0,
      "byteLength": 2505864,
      "byteOffset": 3160408,
      "byteStride": 12,
      "name": "floatBufferViews",
      "target": 34962
    }
  ],
  "buffers": [
    {
      "byteLength": 5666272,
      "uri": "shoe.bin"
    }
  ],
  "materials": [
    {
      "doubleSided": true,
      "name": "Scene_-_Root",
      "pbrMetallicRoughness": {
        "metallicFactor": 0.0,
        "roughnessFactor": 0.6
      }
    }
  ],
  "meshes": [
    {
      "name": "Object_0",
      "primitives": [
        {
          "attributes": {
            "NORMAL": 1,
            "POSITION": 0,
            "TEXCOORD_0": 2
          },
          "indices": 3,
          "material": 0,
          "mode": 4
        }
      ]
    },
    {
      "name": "Object_1",
      "primitives": [
        {
          "attributes": {
            "NORMAL": 5,
            "POSITION": 4,
            "TEXCOORD_0": 6
          },
          "indices": 7,
          "material": 0,
          "mode": 4
        }
      ]
    },
    {
      "name": "Object_2",
      "primitives": [
        {
          "attributes": {
            "NORMAL": 9,
            "POSITION": 8,
            "TEXCOORD_0": 10
          },
          "indices": 11,
          "material": 0,
          "mode": 4
        }
      ]
    },
    {
      "name": "Object_3",
      "primitives": [
        {
          "attributes": {
            "NORMAL": 13,
            "POSITION": 12,
            "TEXCOORD_0": 14
          },
          "indices": 15,
          "material": 0,
          "mode": 4
        }
      ]
    },
    {
      "name": "Object_4",
      "primitives": [
        {
          "attributes": {
            "NORMAL": 17,
            "POSITION": 16,
            "TEXCOORD_0": 18
          },
          "indices": 19,
          "material": 0,
          "mode": 4
        }
      ]
    },
    {
      "name": "Object_5",
      "primitives": [
        {
          "attributes": {
            "NORMAL": 21,
            "POSITION": 20,
            "TEXCOORD_0": 22
          },
          "indices": 23,
          "material": 0,
          "mode": 4
        }
      ]
    },
    {
      "name": "Object_6",
      "primitives": [
        {
          "attributes": {
            "NORMAL": 25,
            "POSITION": 24,
            "TEXCOORD_0": 26
          },
          "indices": 27,
          "material": 0,
          "mode": 4
        }
      ]
    },
    {
      "name": "Object_7",
      "primitives": [
        {
          "attributes": {
            "NORMAL": 29,
            "POSITION": 28,
            "TEXCOORD_0": 30
          },
          "indices": 31,
          "material": 0,
          "mode": 4
        }
      ]
    },
    {
      "name": "Object_8",
      "primitives": [
        {
          "attributes": {
            "NORMAL": 33,
            "POSITION": 32,
            "TEXCOORD_0": 34
          },
          "indices": 35,
          "material": 0,
          "mode": 4
        }
      ]
    },
    {
      "name": "Object_9",
      "primitives": [
        {
          "attributes": {
            "NORMAL": 37,
            "POSITION": 36,
            "TEXCOORD_0": 38
          },
          "indices": 39,
          "material": 0,
          "mode": 4
        }
      ]
    },
    {
      "name": "Object_10",
      "primitives": [
        {
          "attributes": {
            "NORMAL": 41,
            "POSITION": 40,
            "TEXCOORD_0": 42
          },
          "indices": 43,
          "material": 0,
          "mode": 4
        }
      ]
    },
    {
      "name": "Object_11",
      "primitives": [
        {
          "attributes": {
            "NORMAL": 45,
            "POSITION": 44,
            "TEXCOORD_0": 46
          },
          "indices": 47,
          "material": 0,
          "mode": 4
        }
      ]
    },
    {
      "name": "Object_12",
      "primitives": [
        {
          "attributes": {
            "NORMAL": 49,
            "POSITION": 48,
            "TEXCOORD_0": 50
          },
          "indices": 51,
          "material": 0,
          "mode": 4
        }
      ]
    },
    {
      "name": "Object_13",
      "primitives": [
        {
          "attributes": {
            "NORMAL": 53,
            "POSITION": 52,
            "TEXCOORD_0": 54
          },
          "indices": 55,
          "material": 0,
          "mode": 4
        }
      ]
    },
    {
      "name": "Object_14",
      "primitives": [
        {
          "attributes": {
            "NORMAL": 57,
            "POSITION": 56,
            "TEXCOORD_0": 58
          },
          "indices": 59,
          "material": 0,
          "mode": 4
        }
      ]
    },
    {
      "name": "Object_15",
      "primitives": [
        {
          "attributes": {
            "NORMAL": 61,
            "POSITION": 60,
            "TEXCOORD_0": 62
          },
          "indices": 63,
          "material": 0,
          "mode": 4
        }
      ]
    },
    {
      "name": "Object_16",
      "primitives": [
        {
          "attributes": {
            "NORMAL": 65,
            "POSITION": 64,
            "TEXCOORD_0": 66
          },
          "indices": 67,
          "material": 0,
          "mode": 4
        }
      ]
    }
  ],
  "nodes": [
    {
      "children": [
        1
      ],
      "matrix": [
        1.0,
        0.0,
        0.0,
        0.0,
        0.0,
        2.220446049250313e-16,
        -1.0,
        0.0,
        0.0,
        1.0,
        2.220446049250313e-16,
        0.0,
        0.0,
        0.0,
        0.0,
        1.0
      ],
      "name": "Sketchfab_model"
    },
    {
      "children": [
        2
      ],
      "name": "root"
    },
    {
      "children": [
        3,
        5,
        7,
        9,
        11,
        13,
        15,
        17,
        19,
        21,
        23,
        25,
        27,
        29,
        31,
        33,
        35
      ],
      "matrix": [
        1.0,
        0.0,
        0.0,
        0.0,
        0.0,
        2.220446049250313e-16,
        1.0,
        0.0,
        0.0,
        -1.0,
        2.220446049250313e-16,
        0.0,
        0.0,
        0.0,
        0.0,
        1.0
      ],
      "name": "GLTF_SceneRootNode"
    },
    {
      "children": [
        4
      ],
      "matrix": [
        1.0,
        0.0,
        0.0,
        0.0,
        0.0,
        1.0,
        0.0,
        0.0,
        0.0,
        0.0,
        1.0,
        0.0,
        0.12165113538503647,
        -0.03154178708791733,
        -1.9633246660232544,
        1.0
      ],
      "name": "Material.003_0"
    },
    {
      "mesh": 0,
      "name": "Object_4"
    },
    {
      "children": [
        6
      ],
      "matrix": [
        1.0,
        0.0,
        0.0,
        0.0,
        0.0,
        1.0,
        0.0,
        0.0,
        0.0,
        0.0,
        1.0,
        0.0,
        -0.002579003805294633,
        -0.6041526198387146,
        -0.008326436392962933,
        1.0
      ],
      "name": "Material.002_1"
    },
    {
      "mesh": 1,
      "name": "Object_6"
    },
    {
      "children": [
        8
      ],
      "matrix": [
        1.0,
        0.0,
        0.0,
        0.0,
        0.0,
        1.0,
        0.0,
        0.0,
        0.0,
        0.0,
        1.0,
        0.0,
        0.030184131115674973,
        -0.06417262554168701,
        0.061920396983623505,
        1.0
      ],
      "name": "Material.001_2"
    },
    {
      "mesh": 2,
      "name": "Object_8"
    },
    {
      "children": [
        10
      ],
      "matrix": [
        1.0,
        0.0,
        0.0,
        0.0,
        0.0,
        1.0,
        0.0,
        0.0,
        0.0,
        0.0,
        1.0,
        0.0,
        -0.0025777150876820087,
        0.1573961228132248,
        -0.34606024622917175,
        1.0
      ],
      "name": "Material_3"
    },
    {
      "mesh": 3,
      "name": "Object_10"
    },
    {
      "children": [
        12
      ],
      "matrix": [
        1.0,
        0.0,
        0.0,
        0.0,
        0.0,
        1.0,
        0.0,
        0.0,
        0.0,
        0.0,
        1.0,
        0.0,
        -0.002110174158588052,
        0.0,
        0.0,
        1.0
      ],
      "name": "Torus_5"
    },
    {
      "mesh": 4,
      "name": "Object_12"
    },
    {
      "children": [
        14
      ],
      "matrix": [
        -0.043575132116185994,
        0.0,
        1.324232127257289e-05,
        0.0,
        0.0,
        0.04357514902949333,
        0.0,
        0.0,
        -1.324232127257289e-05,
        0.0,
        -0.043575132116185994,
        0.0,
        0.10756155103445053,
        0.0703156515955925,
        -1.266312599182129,
        1.0
      ],
      "name": "Laces.002_8"
    },
    {
      "mesh": 5,
      "name": "Object_14"
    },
    {
      "children": [
        16
      ],
      "matrix": [
        -0.041727991710471674,
        0.0,
        1.2680982144035083e-05,
        0.0,
        0.0,
        0.04172801226377487,
        0.0,
        0.0,
        -1.2680982144035083e-05,
        0.0,
        -0.041727991710471674,
        0.0,
        0.10844934731721878,
        0.09836075454950333,
        -1.2439132928848267,
        1.0
      ],
      "name": "Laces.001_9"
    },
    {
      "mesh": 6,
      "name": "Object_16"
    },
    {
      "children": [
        18
      ],
      "matrix": [
        0.041727991710471674,
        0.0,
        -1.2680982144035083e-05,
        -0.0,
        0.0,
        0.04172800853848457,
        0.0,
        -0.0,
        -1.2680982144035083e-05,
        -0.0,
        -0.04172799171047167,
        -0.0,
        -0.08032657206058502,
        0.04136761277914047,
        -1.227772831916809,
        1.0
      ],
      "name": "Laces.003_10"
    },
    {
      "mesh": 7,
      "name": "Object_18"
    },
    {
      "children": [
        20
      ],
      "matrix": [
        -0.041727991710471674,
        0.0,
        1.2680982144035083e-05,
        0.0,
        0.0,
        0.04172801226377487,
        0.0,
        0.0,
        -1.2680982144035083e-05,
        0.0,
        -0.041727991710471674,
        0.0,
        0.0813334658741951,
        0.1803724616765976,
        -0.8510422110557556,
        1.0
      ],
      "name": "Laces.004_11"
    },
    {
      "mesh": 8,
      "name": "Object_20"
    },
    {
      "children": [
        22
      ],
      "matrix": [
        0.041727991710471674,
        0.0,
        -1.2680982144035083e-05,
        -0.0,
        0.0,
        0.04172800853848457,
        0.0,
        -0.0,
        -1.2680982144035083e-05,
        -0.0,
        -0.04172799171047167,
        -0.0,
        -0.07630742341279984,
        0.165865957736969,
        -0.8163644075393677,
        1.0
      ],
      "name": "Laces.005_12"
    },
    {
      "mesh": 9,
      "name": "Object_22"
    },
    {
      "children": [
        24
      ],
      "matrix": [
        0.041727991710471674,
        0.0,
        -1.2680982144035083e-05,
        -0.0,
        0.0,
        0.04172800853848457,
        0.0,
        -0.0,
        -1.2680982144035083e-05,
        -0.0,
        -0.04172799171047167,
        -0.0,
        -0.11825379729270935,
        0.3038333058357239,
        -0.4368056356906891,
        1.0
      ],
      "name": "Laces.006_13"
    },
    {
      "mesh": 10,
      "name": "Object_24"
    },
    {
      "children": [
        26
      ],
      "matrix": [
        -0.041537367736181656,
        0.0,
        0.003984073975657301,
        0.0,
        -0.0,
        0.04172800853848457,
        0.0,
        0.0,
        -0.003984073975657301,
        0.0,
        -0.041537367736181656,
        0.0,
        -0.013918176293373108,
        0.3038333058357239,
        -0.4756649136543274,
        1.0
      ],
      "name": "Laces.007_14"
    },
    {
      "mesh": 11,
      "name": "Object_26"
    },
    {
      "children": [
        28
      ],
      "matrix": [
        0.041727991710471674,
        0.0,
        -1.2680982144035083e-05,
        -0.0,
        0.0,
        0.04172800853848457,
        0.0,
        -0.0,
        -1.2680982144035083e-05,
        -0.0,
        -0.04172799171047167,
        -0.0,
        -0.16797664761543274,
        0.4303421378135681,
        -0.17117951810359955,
        1.0
      ],
      "name": "Laces.008_15"
    },
    {
      "mesh": 12,
      "name": "Object_28"
    },
    {
      "children": [
        30
      ],
      "matrix": [
        -0.041537367736181656,
        0.0,
        0.003984073975657301,
        0.0,
        0.0,
        0.04172800853848457,
        0.0,
        0.0,
        -0.003984073975657301,
        0.0,
        -0.041537367736181656,
        0.0,
        0.04115946963429451,
        0.49484366178512573,
        -0.10389083623886108,
        1.0
      ],
      "name": "Laces.009_16"
    },
    {
      "mesh": 13,
      "name": "Object_30"
    },
    {
      "children": [
        32
      ],
      "matrix": [
        1.0,
        0.0,
        0.0,
        0.0,
        0.0,
        1.0,
        0.0,
        0.0,
        0.0,
        0.0,
        1.0,
        0.0,
        -0.002579003805294633,
        -0.6041526198387146,
        -0.008326436392962933,
        1.0
      ],
      "name": "Material.007_17"
    },
    {
      "mesh": 14,
      "name": "Object_32"
    },
    {
      "children": [
        34
      ],
      "matrix": [
        1.0,
        0.0,
        0.0,
        0.0,
        0.0,
        1.0,
        0.0,
        0.0,
        0.0,
        0.0,
        1.0,
        0.0,
        -0.002579003805294633,
        -0.6041526198387146,
        -0.008326436392962933,
        1.0
      ],
      "name": "Material.008_18"
    },
    {
      "mesh": 15,
      "name": "Object_34"
    },
    {
      "children": [
        36
      ],
      "matrix": [
        1.0,
        0.0,
        0.0,
        0.0,
        0.0,
        1.0,
        0.0,
        0.0,
        0.0,
        0.0,
        1.0,
        0.0,
        -0.002579003805294633,
        -0.6041526198387146,
        -0.008326436392962933,
        1.0
      ],
      "name": "Material.009_19"
    },
    {
      "mesh": 16,
      "name": "Object_36"
    }
  ],
  "scene": 0,
  "scenes": [
    {
      "name": "Sketchfab_Scene",
      "nodes": [
        0
      ]
    }
  ]
}
